<?xml version="1.0" standalone="no"?>
<!DOCTYPE svg PUBLIC "-//W3C//DTD SVG 20010904//EN"
 "http://www.w3.org/TR/2001/REC-SVG-20010904/DTD/svg10.dtd">
<svg version="1.0" xmlns="http://www.w3.org/2000/svg"
 width="400.000000pt" height="81.000000pt" viewBox="0 0 400.000000 81.000000"
 preserveAspectRatio="xMidYMid meet">

<g transform="translate(0.000000,81.000000) scale(0.100000,-0.100000)"
fill="#000000" stroke="none">
<path d="M300 746 c-239 -79 -328 -360 -176 -558 66 -88 206 -147 316 -134 30
4 82 19 115 35 152 72 232 240 191 401 -41 162 -179 271 -341 269 -38 -1 -86
-6 -105 -13z m241 -23 c95 -43 170 -133 196 -238 28 -116 -6 -234 -92 -320
-55 -55 -105 -81 -188 -96 -192 -36 -379 109 -395 307 -13 163 85 309 241 360
59 19 180 13 238 -13z"/>
<path d="M241 490 c34 -45 101 -80 154 -80 47 0 134 39 152 69 10 16 2 13 -31
-11 -81 -57 -181 -49 -260 21 l-41 36 26 -35z"/>
<path d="M320 385 c-40 -18 -67 -41 -82 -69 -7 -12 6 -6 32 17 71 60 168 64
246 8 27 -19 40 -24 33 -13 -37 59 -157 89 -229 57z"/>
<path d="M2250 675 c0 -22 4 -25 40 -25 36 0 40 3 40 25 0 23 -4 25 -40 25
-36 0 -40 -2 -40 -25z"/>
<path d="M2750 675 c0 -23 4 -25 45 -25 41 0 45 2 45 25 0 23 -4 25 -45 25
-41 0 -45 -2 -45 -25z"/>
<path d="M2010 475 l0 -205 74 0 c123 0 139 30 127 253 -8 149 -14 157 -127
157 l-74 0 0 -205z m120 0 c0 -128 -1 -135 -20 -135 -19 0 -20 7 -20 135 0
128 1 135 20 135 19 0 20 -7 20 -135z"/>
<path d="M2620 645 c0 -19 -4 -35 -10 -35 -5 0 -10 -16 -10 -35 0 -19 4 -35
10 -35 5 0 11 -54 12 -127 l3 -128 28 -13 c37 -18 67 -7 67 23 0 13 -4 27 -10
30 -6 3 -10 52 -10 111 0 63 4 104 10 104 6 0 10 16 10 35 0 19 -4 35 -10 35
-5 0 -10 16 -10 35 0 34 -1 35 -40 35 -39 0 -40 -1 -40 -35z"/>
<path d="M1014 627 c-2 -7 -3 -91 -2 -187 l3 -175 37 -3 37 -3 3 133 c3 110 6
133 18 133 12 0 15 -23 18 -132 l3 -133 34 0 35 0 0 138 c0 108 -3 142 -16
160 -19 27 -68 30 -83 5 -8 -14 -10 -8 -11 30 l0 47 -35 0 c-20 0 -38 -6 -41
-13z"/>
<path d="M830 600 c0 -23 4 -30 20 -30 18 0 20 -8 22 -152 l3 -153 35 0 35 0
3 153 c2 144 4 152 22 152 16 0 20 7 20 30 l0 30 -80 0 -80 0 0 -30z"/>
<path d="M1461 498 c-6 -73 -14 -157 -18 -185 l-6 -53 37 0 c33 0 36 2 36 30
0 25 4 30 24 30 19 0 25 -6 28 -27 2 -23 8 -29 36 -31 30 -3 32 -2 32 30 0 18
-7 96 -15 173 -8 77 -15 146 -15 153 0 8 -19 12 -63 12 l-64 0 -12 -132z m88
-65 c1 -41 -2 -53 -14 -53 -17 0 -18 20 -8 125 l7 70 7 -45 c4 -25 8 -69 8
-97z"/>
<path d="M1660 445 l0 -185 75 0 75 0 0 30 c0 28 -2 30 -40 30 l-40 0 0 155 0
155 -35 0 -35 0 0 -185z"/>
<path d="M1832 448 l3 -183 73 -3 72 -3 0 31 c0 28 -3 30 -35 30 l-35 0 0 155
0 155 -40 0 -40 0 2 -182z"/>
<path d="M2250 445 l0 -175 40 0 40 0 0 175 0 175 -40 0 -40 0 0 -175z"/>
<path d="M2396 597 c-18 -19 -25 -40 -31 -95 -7 -74 0 -164 17 -195 16 -32 73
-49 118 -37 50 14 70 42 70 102 l0 48 -39 0 c-40 0 -40 0 -43 -42 -2 -32 -8
-44 -21 -46 -16 -3 -17 6 -15 110 2 92 6 113 18 113 10 0 16 -12 18 -37 3 -37
4 -38 43 -38 l39 0 0 45 c0 66 -31 95 -100 95 -40 0 -56 -5 -74 -23z"/>
<path d="M2750 445 l0 -175 45 0 45 0 0 175 0 175 -45 0 -45 0 0 -175z"/>
<path d="M2899 591 c-29 -29 -29 -31 -29 -140 0 -60 4 -121 10 -136 12 -33 69
-58 113 -50 70 14 87 48 87 176 0 139 -25 179 -110 179 -33 0 -48 -6 -71 -29z
m91 -147 c0 -105 -2 -115 -17 -112 -16 3 -18 17 -21 102 -3 109 0 126 23 126
13 0 15 -18 15 -116z"/>
<path d="M3110 445 l0 -175 39 0 39 0 4 139 c1 77 6 143 10 146 4 4 14 5 23 2
12 -5 15 -29 15 -147 l0 -140 40 0 40 0 0 146 c0 175 -10 203 -72 204 -17 0
-33 -9 -42 -22 l-16 -22 0 22 c0 19 -5 22 -40 22 l-40 0 0 -175z"/>
<path d="M3381 603 c-11 -10 -24 -33 -27 -50 -6 -33 -6 -33 34 -33 32 0 41 4
45 21 8 30 31 18 35 -18 3 -27 -1 -31 -37 -42 -57 -17 -81 -51 -81 -118 0 -44
4 -58 25 -79 27 -27 59 -26 83 4 11 14 12 14 12 -1 0 -13 9 -17 40 -17 l40 0
0 150 c0 147 -1 152 -25 175 -30 31 -111 35 -144 8z m87 -210 c-2 -44 -7 -58
-18 -58 -19 0 -27 80 -9 101 22 27 30 14 27 -43z"/>
<path d="M3590 445 l0 -175 40 0 39 0 3 137 c3 137 3 137 28 143 19 4 26 13
28 38 4 36 -11 42 -40 15 -17 -15 -18 -15 -18 0 0 13 -9 17 -40 17 l-40 0 0
-175z"/>
<path d="M3744 603 c2 -10 14 -79 26 -153 11 -74 23 -147 26 -162 5 -25 3 -28
-20 -28 -21 0 -26 -5 -26 -25 0 -24 3 -25 60 -25 53 0 62 3 70 23 9 20 70 351
70 376 0 6 -17 11 -39 11 l-39 0 -7 -82 c-4 -46 -10 -101 -14 -123 -7 -37 -8
-33 -15 40 -15 171 -13 165 -58 165 -33 0 -39 -3 -34 -17z"/>
<path d="M1268 566 c-27 -20 -38 -61 -38 -139 0 -97 14 -145 46 -157 68 -26
128 5 140 73 l6 37 -41 0 c-39 0 -41 -2 -41 -30 0 -20 -5 -30 -15 -30 -11 0
-15 12 -15 50 l0 50 55 0 55 0 0 33 c0 50 -19 106 -40 117 -26 14 -92 12 -112
-4z m70 -79 c3 -32 0 -37 -17 -37 -22 0 -26 16 -15 58 9 34 29 21 32 -21z"/>
</g>
</svg>
